<svg width="21" height="21" viewBox="0 0 21 21" fill="none" xmlns="http://www.w3.org/2000/svg">
<path d="M2.77135 0.650033C2.18557 0.0642468 1.23582 0.0642468 0.650033 0.650033C0.0642468 1.23582 0.0642468 2.18557 0.650033 2.77135L2.77135 0.650033ZM18.7107 20.2107C19.5391 20.2107 20.2107 19.5391 20.2107 18.7107V5.21069C20.2107 4.38227 19.5391 3.71069 18.7107 3.71069C17.8823 3.71069 17.2107 4.38227 17.2107 5.21069V17.2107H5.21069C4.38227 17.2107 3.71069 17.8823 3.71069 18.7107C3.71069 19.5391 4.38227 20.2107 5.21069 20.2107H18.7107ZM0.650033 2.77135L17.65 19.7714L19.7714 17.65L2.77135 0.650033L0.650033 2.77135Z" fill="white"/>
</svg>
